<?xml version="1.0" encoding="utf-8"?>
<!-- Generator: Adobe Illustrator 15.1.0, SVG Export Plug-In . SVG Version: 6.00 Build 0)  -->
<!DOCTYPE svg PUBLIC "-//W3C//DTD SVG 1.1//EN" "http://www.w3.org/Graphics/SVG/1.1/DTD/svg11.dtd">
<svg version="1.1" id="Ebene_1" xmlns="http://www.w3.org/2000/svg" xmlns:xlink="http://www.w3.org/1999/xlink" x="0px" y="0px"
	 width="145px" height="30px" viewBox="0 0 145 30" enable-background="new 0 0 145 30" xml:space="preserve">
<g>
	<defs>
		<rect id="SVGID_1_" width="145" height="30"/>
	</defs>
	<clipPath id="SVGID_2_">
		<use xlink:href="#SVGID_1_"  overflow="visible"/>
	</clipPath>
	<path clip-path="url(#SVGID_2_)" fill="#1BBAF2" d="M21.652,29.852h3.026c0.482,0,0.927-0.258,1.167-0.675l7.769-13.505
		c0.239-0.416,0.239-0.927,0-1.343L25.845,0.824c-0.24-0.418-0.685-0.675-1.167-0.675h-3.026c-0.372,0-0.673,0.301-0.673,0.673
		c0,0.118,0.03,0.233,0.089,0.335l7.567,13.173c0.238,0.415,0.238,0.926,0,1.341l-7.567,13.172
		c-0.185,0.323-0.074,0.734,0.248,0.919C21.419,29.82,21.534,29.852,21.652,29.852 M16.079,29.852H9.15
		c-0.481,0-0.926-0.258-1.167-0.675L0.215,15.672c-0.239-0.416-0.239-0.927,0-1.343L7.983,0.824C8.224,0.406,8.669,0.149,9.15,0.149
		h6.929c0.241,0,0.463,0.128,0.584,0.337l1.79,3.111c0.185,0.322,0.074,0.734-0.248,0.919c-0.102,0.059-0.218,0.09-0.336,0.09
		h-6.157c-0.481,0-0.926,0.257-1.166,0.674l-5.204,9.025c-0.24,0.416-0.24,0.929,0,1.345l5.204,9.025
		c0.24,0.417,0.685,0.674,1.166,0.674h6.184c0.371,0,0.673,0.301,0.673,0.673c0,0.118-0.031,0.233-0.09,0.336l-1.816,3.156
		C16.542,29.723,16.32,29.852,16.079,29.852 M21.375,8.689l3.239,5.584c0.243,0.418,0.243,0.934,0,1.351l-3.239,5.585
		c-0.241,0.415-0.685,0.671-1.165,0.671h-6.489c-0.48,0-0.924-0.256-1.165-0.671l-3.239-5.585c-0.243-0.417-0.243-0.933,0-1.351
		l3.239-5.584c0.241-0.415,0.685-0.671,1.165-0.671h6.489C20.69,8.018,21.134,8.274,21.375,8.689"/>
	<path clip-path="url(#SVGID_2_)" fill="#1BBAF2" d="M48.571,11.139c-0.301-0.372-0.708-0.647-1.223-0.825
		c-0.515-0.179-1.001-0.268-1.461-0.268c-0.269,0-0.546,0.031-0.831,0.093c-0.285,0.062-0.554,0.159-0.807,0.291
		c-0.254,0.132-0.46,0.306-0.618,0.523c-0.158,0.217-0.237,0.481-0.237,0.791c0,0.496,0.19,0.876,0.57,1.14
		c0.38,0.263,0.859,0.488,1.436,0.674c0.578,0.186,1.2,0.372,1.865,0.558c0.665,0.186,1.286,0.45,1.864,0.791
		s1.057,0.798,1.437,1.372s0.57,1.341,0.57,2.302c0,0.915-0.174,1.713-0.522,2.396c-0.349,0.682-0.82,1.248-1.413,1.696
		c-0.594,0.45-1.283,0.783-2.067,1C46.351,23.892,45.523,24,44.652,24c-1.092,0-2.106-0.163-3.04-0.489
		c-0.934-0.324-1.805-0.852-2.612-1.58l2.636-2.838c0.38,0.496,0.859,0.881,1.437,1.151c0.578,0.271,1.176,0.407,1.793,0.407
		c0.301,0,0.606-0.035,0.914-0.105c0.309-0.068,0.586-0.174,0.832-0.313c0.245-0.14,0.443-0.317,0.594-0.534
		c0.15-0.218,0.225-0.473,0.225-0.768c0-0.496-0.194-0.889-0.582-1.175c-0.388-0.287-0.875-0.53-1.46-0.732
		c-0.586-0.201-1.22-0.403-1.9-0.605c-0.681-0.201-1.315-0.472-1.901-0.813c-0.585-0.341-1.072-0.791-1.46-1.348
		c-0.388-0.558-0.582-1.295-0.582-2.21c0-0.883,0.178-1.659,0.534-2.325c0.357-0.667,0.832-1.225,1.425-1.675
		c0.594-0.449,1.279-0.786,2.055-1.011c0.776-0.225,1.575-0.337,2.399-0.337c0.95,0,1.868,0.131,2.755,0.395
		c0.886,0.263,1.686,0.705,2.399,1.325L48.571,11.139z M53.488,6h3.563v17.581h-3.563V6z M59.664,12.279h3.563v11.302h-3.563V12.279
		z M59.378,8.721c0-0.558,0.202-1.035,0.605-1.43c0.404-0.396,0.891-0.593,1.461-0.593s1.057,0.197,1.461,0.593
		c0.404,0.395,0.605,0.872,0.605,1.43s-0.201,1.035-0.605,1.43c-0.404,0.395-0.891,0.593-1.461,0.593s-1.057-0.198-1.461-0.593
		C59.581,9.756,59.378,9.279,59.378,8.721 M73.605,15.931c-0.175-0.248-0.42-0.453-0.737-0.616
		c-0.315-0.163-0.657-0.244-1.021-0.244c-0.902,0-1.603,0.263-2.102,0.79c-0.499,0.526-0.748,1.217-0.748,2.07
		c0,0.853,0.249,1.543,0.748,2.069c0.499,0.527,1.2,0.791,2.102,0.791c0.396,0,0.736-0.086,1.021-0.256
		c0.285-0.171,0.531-0.372,0.737-0.604l2.351,2.419c-0.554,0.558-1.207,0.948-1.96,1.174c-0.752,0.225-1.468,0.337-2.149,0.337
		c-0.887,0-1.722-0.139-2.506-0.418c-0.783-0.279-1.464-0.679-2.042-1.198c-0.578-0.519-1.033-1.143-1.366-1.872
		c-0.332-0.729-0.499-1.543-0.499-2.441c0-0.899,0.167-1.714,0.499-2.442c0.333-0.728,0.788-1.353,1.366-1.872
		s1.259-0.918,2.042-1.198C70.125,12.139,70.96,12,71.847,12c0.681,0,1.397,0.112,2.149,0.337c0.753,0.225,1.406,0.616,1.96,1.174
		L73.605,15.931z M77.238,6h3.563v10.744l3.942-4.465h4.37l-4.584,5.093l4.703,6.209h-4.489L80.85,17.86h-0.048v5.721h-3.563V6z
		 M90.444,12.279h3.42v1.535h0.048c0.11-0.217,0.27-0.434,0.476-0.651c0.205-0.217,0.451-0.411,0.735-0.582
		c0.285-0.17,0.609-0.31,0.975-0.418C96.461,12.054,96.857,12,97.284,12c0.903,0,1.631,0.135,2.186,0.407
		c0.554,0.271,0.985,0.647,1.295,1.128c0.308,0.48,0.518,1.046,0.629,1.697c0.11,0.651,0.166,1.356,0.166,2.117v6.231h-3.562v-5.535
		c0-0.324-0.012-0.662-0.036-1.011c-0.023-0.349-0.095-0.671-0.214-0.965c-0.118-0.295-0.301-0.535-0.546-0.721
		c-0.245-0.187-0.598-0.279-1.057-0.279s-0.831,0.081-1.116,0.244s-0.503,0.38-0.653,0.65c-0.15,0.271-0.25,0.577-0.297,0.919
		c-0.048,0.342-0.07,0.697-0.07,1.069v5.628h-3.563V12.279z M103.649,17.931c0-0.899,0.167-1.714,0.499-2.442
		c0.333-0.728,0.788-1.353,1.366-1.872s1.259-0.918,2.042-1.198c0.784-0.279,1.619-0.418,2.506-0.418s1.722,0.139,2.506,0.418
		c0.784,0.28,1.464,0.679,2.042,1.198s1.034,1.144,1.366,1.872c0.333,0.729,0.499,1.543,0.499,2.442
		c0,0.898-0.166,1.713-0.499,2.441c-0.332,0.729-0.788,1.354-1.366,1.872c-0.578,0.52-1.258,0.919-2.042,1.198
		s-1.619,0.418-2.506,0.418s-1.722-0.139-2.506-0.418c-0.783-0.279-1.464-0.679-2.042-1.198c-0.578-0.519-1.033-1.143-1.366-1.872
		C103.816,19.644,103.649,18.829,103.649,17.931 M107.212,17.931c0,0.853,0.249,1.543,0.748,2.069
		c0.499,0.527,1.2,0.791,2.103,0.791c0.903,0,1.603-0.264,2.102-0.791c0.499-0.526,0.748-1.217,0.748-2.069
		c0-0.854-0.249-1.544-0.748-2.07c-0.499-0.527-1.198-0.79-2.102-0.79c-0.902,0-1.604,0.263-2.103,0.79
		C107.461,16.387,107.212,17.077,107.212,17.931 M130.679,23.581H127.4v-1.488h-0.047c-0.144,0.201-0.329,0.407-0.559,0.616
		s-0.498,0.399-0.808,0.57c-0.309,0.17-0.648,0.31-1.021,0.419c-0.372,0.108-0.757,0.162-1.152,0.162
		c-0.855,0-1.631-0.144-2.328-0.43c-0.696-0.287-1.294-0.69-1.793-1.209c-0.499-0.521-0.883-1.137-1.152-1.85
		c-0.269-0.713-0.403-1.496-0.403-2.349c0-0.791,0.123-1.546,0.369-2.268c0.244-0.721,0.593-1.361,1.045-1.918
		c0.45-0.558,1.001-1.004,1.649-1.337c0.649-0.334,1.386-0.5,2.209-0.5c0.744,0,1.438,0.112,2.078,0.337
		c0.643,0.225,1.168,0.609,1.58,1.151h0.047V6h3.563V23.581z M127.4,17.931c0-0.854-0.249-1.544-0.748-2.07
		c-0.499-0.527-1.199-0.79-2.102-0.79s-1.604,0.263-2.103,0.79c-0.499,0.526-0.748,1.217-0.748,2.07
		c0,0.853,0.249,1.543,0.748,2.069c0.499,0.527,1.2,0.791,2.103,0.791s1.603-0.264,2.102-0.791
		C127.151,19.474,127.4,18.783,127.4,17.931 M144.453,21.628c-0.569,0.713-1.29,1.264-2.161,1.651
		c-0.87,0.388-1.772,0.581-2.708,0.581c-0.886,0-1.722-0.139-2.505-0.418c-0.784-0.279-1.465-0.679-2.043-1.198
		c-0.578-0.519-1.033-1.143-1.366-1.872c-0.332-0.729-0.497-1.543-0.497-2.441c0-0.899,0.165-1.714,0.497-2.442
		c0.333-0.728,0.788-1.353,1.366-1.872s1.259-0.918,2.043-1.198c0.783-0.279,1.619-0.418,2.505-0.418
		c0.824,0,1.572,0.139,2.245,0.418c0.673,0.28,1.243,0.679,1.71,1.198c0.468,0.519,0.827,1.144,1.081,1.872
		c0.253,0.729,0.38,1.543,0.38,2.442v1.093h-8.266c0.143,0.667,0.452,1.198,0.927,1.593c0.476,0.395,1.061,0.593,1.757,0.593
		c0.586,0,1.081-0.128,1.485-0.384c0.403-0.255,0.756-0.585,1.057-0.988L144.453,21.628z M141.438,16.651
		c0.016-0.589-0.182-1.093-0.594-1.512c-0.411-0.418-0.942-0.628-1.592-0.628c-0.396,0-0.743,0.062-1.045,0.187
		c-0.301,0.124-0.558,0.282-0.771,0.476c-0.214,0.194-0.38,0.419-0.499,0.676c-0.119,0.255-0.187,0.522-0.202,0.802H141.438z"/>
</g>
</svg>
